<?xml version="1.0" encoding="UTF-8" standalone="no"?>
<!-- Created with Inkscape (http://www.inkscape.org/) -->

<svg
   xmlns:dc="http://purl.org/dc/elements/1.1/"
   xmlns:cc="http://creativecommons.org/ns#"
   xmlns:rdf="http://www.w3.org/1999/02/22-rdf-syntax-ns#"
   xmlns:svg="http://www.w3.org/2000/svg"
   xmlns="http://www.w3.org/2000/svg"
   xmlns:sodipodi="http://sodipodi.sourceforge.net/DTD/sodipodi-0.dtd"
   xmlns:inkscape="http://www.inkscape.org/namespaces/inkscape"
   id="svg2995"
   version="1.1"
   inkscape:version="0.48.2 r9819"
   width="1024"
   height="1024"
   sodipodi:docname="wookmark_viewer.svg"
   inkscape:export-filename="C:\Users\Adam\Dropbox\wookmark_viewer_512.png"
   inkscape:export-xdpi="45"
   inkscape:export-ydpi="45">
  <metadata
     id="metadata3001">
    <rdf:RDF>
      <cc:Work
         rdf:about="">
        <dc:format>image/svg+xml</dc:format>
        <dc:type
           rdf:resource="http://purl.org/dc/dcmitype/StillImage" />
        <dc:title></dc:title>
      </cc:Work>
    </rdf:RDF>
  </metadata>
  <defs
     id="defs2999" />
  <sodipodi:namedview
     pagecolor="#000000"
     bordercolor="#666666"
     borderopacity="1"
     objecttolerance="10"
     gridtolerance="10"
     guidetolerance="10"
     inkscape:pageopacity="0"
     inkscape:pageshadow="2"
     inkscape:window-width="1920"
     inkscape:window-height="1138"
     id="namedview2997"
     showgrid="true"
     inkscape:zoom="0.48241865"
     inkscape:cx="-176.37227"
     inkscape:cy="522.41397"
     inkscape:window-x="1272"
     inkscape:window-y="-8"
     inkscape:window-maximized="1"
     inkscape:current-layer="svg2995">
    <inkscape:grid
       type="xygrid"
       id="grid3019"
       empspacing="5"
       visible="true"
       enabled="true"
       snapvisiblegridlinesonly="true" />
  </sodipodi:namedview>
  <path
     sodipodi:nodetypes="csssssssssssscc"
     style="fill:#828282;fill-opacity:1"
     d="M 452.78213,968.16561 C 426.207,956.47226 424.13733,953.32604 345.1801,804.59564 23.189907,198.06813 16.82718,184.44198 40.620163,152.36277 c 20.046483,-27.02795 96.700147,-32.7337 130.643107,-9.72449 18.82395,12.76036 29.81166,32.63036 204.73259,370.23563 65.64175,126.69151 121.24183,228.68615 123.55573,226.65476 2.31391,-2.03139 24.35701,-39.21969 48.98467,-82.64062 111.8129,-197.1369 189.79161,-325.22528 248.96311,-408.94853 72.56382,-102.67236 93.57846,-120.76146 140.29242,-120.76146 33.74789,0 65.38761,12.09295 76.12341,29.09496 18.3572,29.07177 10.5101,45.64616 -89.91668,189.91974 -91.09577,130.86861 -170.00553,265.60632 -326.12554,556.85651 -24.20732,45.16006 -33.58966,56.92971 -51.75309,64.9214 -28.15914,12.38966 -65.44622,12.46755 -93.33776,0.19508 z"
     id="path3783"
     inkscape:connector-curvature="0" />
  <path
     inkscape:connector-curvature="0"
     id="path3039"
     d="M 424.78213,962.16561 C 398.207,950.47226 396.13733,947.32604 317.1801,798.59564 -4.8100926,192.06813 -11.172819,178.44198 12.620163,146.36277 c 20.046483,-27.02795 96.700147,-32.73369 130.643107,-9.72449 18.82395,12.76036 29.81166,32.63036 204.73259,370.23563 65.64175,126.69151 121.24183,228.68615 123.55573,226.65476 2.31391,-2.03139 24.35701,-39.21969 48.98467,-82.64062 111.8129,-197.1369 189.79161,-325.22528 248.96311,-408.94853 72.56382,-102.67236 93.57846,-120.76145 140.29242,-120.76145 33.74789,0 65.38762,12.09294 76.12347,29.09495 18.35714,29.07177 10.51005,45.64616 -89.91674,189.91974 -91.09577,130.86861 -170.00553,265.60632 -326.12554,556.85651 -24.20732,45.16006 -33.58966,56.92971 -51.75309,64.9214 -28.15914,12.38966 -65.44622,12.46755 -93.33776,0.19508 z"
     style="fill:#404040;stroke:#828282;stroke-width:4;stroke-miterlimit:4;stroke-opacity:1;stroke-dasharray:none;fill-opacity:1"
     sodipodi:nodetypes="csssssssssssscc" />
  <path
     sodipodi:nodetypes="cccccccccccccccccccccccccccccccccc"
     inkscape:connector-curvature="0"
     id="path3785"
     d="m 379.35787,371.76379 c -14.93514,-16.80706 -26.87739,-32.78182 -36.93666,-55.02713 -18.18017,-26.7838 -32.47527,-56.20129 -50.73488,-83.53683 -12.2474,-22.7831 -22.14284,-38.96263 -31.89833,-59.56839 -10.64928,-17.38501 -19.69173,-37.25919 -22.1919,-57.69969 0.51082,-34.869126 31.60206,-66.266847 67.1155,-63.931864 27.57057,-3.423266 46.20351,21.176208 61.50167,40.227578 13.46296,20.131026 20.00018,36.474066 30.40146,52.902126 8.12083,19.52663 17.92665,33.6906 27.25744,52.09192 10.28086,18.64289 21.17622,38.25454 31.77238,56.86411 12.28409,19.52419 21.00038,35.86724 29.58861,53.57498 6.66528,25.87369 -6.56779,48.17784 -22.73107,64.49886 -18.05229,15.41652 -42.51302,15.85162 -66.38609,11.40731 -6.53015,-2.38825 -12.08162,-6.86653 -16.75813,-11.80298 z m 172.91588,7.4761 c -15.70434,-9.75093 -28.28469,-29.01317 -39.5157,-46.99151 -8.66784,-17.24303 -16.50147,-33.57925 -25.42007,-51.6349 -9.60352,-16.8095 -21.14398,-36.64268 -31.26967,-55.22915 -11.01992,-18.23622 -20.82574,-35.66879 -32.39718,-53.91522 -10.21929,-22.0664 -24.38325,-38.40944 -21.21678,-63.80197 3.37074,-31.263326 30.60914,-55.233113 61.61563,-55.233113 23.47031,0 40.40999,8.157108 54.27221,23.218127 17.3824,18.74785 24.90278,44.091066 39.22204,65.038156 7.53232,11.34294 20.40754,34.86127 27.37249,40.30894 11.68156,-17.96607 23.54206,-38.13375 35.7717,-56.16026 11.74014,-22.28632 22.20889,-43.773016 41.36649,-59.299206 16.87755,-16.243744 43.21507,-16.427134 64.2721,-9.887677 20.63277,12.478057 41.87035,34.406687 40.0151,60.112693 -3.96499,24.71071 -16.24366,46.71234 -28.68824,68.22713 -10.43568,19.88757 -21.33104,38.40969 -31.70239,58.45568 -8.95783,18.24557 -19.04612,34.4308 -28.97146,54.03869 -12.95492,21.79448 -20.58167,37.04798 -34.08961,57.30147 -12.6061,16.01739 -31.16303,32.04423 -52.419,32.1279 -12.67868,-0.43159 -26.6836,1.00586 -38.21766,-6.67579 z"
     style="fill:#c8c8c8;fill-opacity:1;stroke:none" />
  <path
     style="fill:#888888;fill-opacity:1;stroke:#c8c8c8;stroke-width:2;stroke-miterlimit:4;stroke-opacity:1;stroke-dasharray:none"
     d="m 361.54345,367.82565 c -14.93514,-16.80706 -26.87739,-32.78182 -36.93666,-55.02713 -18.18017,-26.7838 -32.47527,-56.20129 -50.73488,-83.53683 -12.2474,-22.7831 -22.14284,-38.96263 -31.89833,-59.56839 -10.64928,-17.38501 -19.69173,-37.25919 -22.1919,-57.69969 0.51082,-34.869126 31.60206,-66.266847 67.1155,-63.931863 27.57057,-3.423267 46.20351,21.176207 61.50167,40.227577 13.46296,20.131026 20.00018,36.474066 30.40146,52.902126 8.12083,19.52663 17.92665,33.6906 27.25744,52.09192 10.28086,18.64289 21.17622,38.25455 31.77238,56.86411 12.28409,19.52419 21.00038,35.86724 29.58861,53.57498 6.66528,25.87369 -6.56779,48.17784 -22.73107,64.49886 -18.05229,15.41652 -42.51302,15.85162 -66.38608,11.40731 -6.53016,-2.38825 -12.08163,-6.86653 -16.75814,-11.80298 z m 172.91588,7.4761 c -15.70434,-9.75092 -28.28469,-29.01317 -39.5157,-46.99151 -8.66784,-17.24303 -16.50147,-33.57925 -25.42007,-51.6349 -9.60351,-16.8095 -21.14398,-36.64268 -31.26967,-55.22915 -11.01992,-18.23622 -20.82574,-35.66879 -32.39718,-53.91522 -10.21929,-22.0664 -24.38325,-38.40944 -21.21678,-63.80197 3.37075,-31.263326 30.60915,-55.233116 61.61563,-55.233116 23.47031,0 40.40999,8.157115 54.27221,23.21813 17.3824,18.74785 24.90278,44.091066 39.22204,65.038156 7.53232,11.34294 20.40754,34.86127 27.37249,40.30894 11.68156,-17.96607 23.54206,-38.13375 35.7717,-56.16026 11.74014,-22.286316 22.20889,-43.773016 41.36649,-59.299208 16.87755,-16.243742 43.21507,-16.427132 64.2721,-9.887673 20.63277,12.478053 41.87035,34.406685 40.0151,60.112691 -3.96499,24.71071 -16.24366,46.71234 -28.68824,68.22713 -10.43568,19.88757 -21.33104,38.40969 -31.70239,58.45568 -8.95783,18.24557 -19.04612,34.4308 -28.97146,54.03869 -12.95492,21.79448 -20.58166,37.04798 -34.08961,57.30147 -12.6061,16.01739 -31.16302,32.04423 -52.419,32.1279 -12.67868,-0.43159 -26.6836,1.00586 -38.21766,-6.67579 z"
     id="path3044"
     inkscape:connector-curvature="0"
     sodipodi:nodetypes="cccccccccccccccccccccccccccccccccc" />
</svg>
